# xmcd
#
# Track frame offsets:
#	150
#	13567
#	32710
#	46051
#	61053
#	76196
#	88234
#	100429
#	115176
#	125301
#	134718
#	146165
#	160322
#	171879
#	185257
#	196213
#
# Disc length: 2786
#
# Revision: 2
# Processed by: cddbd v1.5.1PL0 Copyright (c) Steve Scherf et al.
# Submitted via: audiograbber 1.81.02
# Normalized: r1:TDELIM( - )
#
DISCID=d60ae010
DTITLE=Various Artist - Tragedy and Triumph
DYEAR=2000
DGENRE=
TTITLE0=Tammy Wynette - Divorce
TTITLE1=Billie Jo Spears - Ode To Billy Joe
TTITLE2=Tanya Tucker - The Jamestown Ferry
TTITLE3=Kenny Dale - Bluest Heartache Of The Year
TTITLE4=Jessi Colter - I'm Not Lisa
TTITLE5=Wanda Jackson - Stand By Your Man
TTITLE6=George Jones - A Girl I Used To Know
TTITLE7=Glen Campbell - You Better Sit Down Kids
TTITLE8=Patsy Cline - Three Cigartettes In An Ashtray
TTITLE9=Glen Campbell and Bobbie Gentry - Let It Be Me
TTITLE10=Sonny James - The Minute You're Gone
TTITLE11=Don Williams - Desperately
TTITLE12=Crystal Gayle - Don't It Make My Browneyes Blue
TTITLE13=Willy Nelson - The Last Letter
TTITLE14=Johnny Cash - Cry! Cry! Cry!
TTITLE15=Billie Jo Spears - (I Never Promised You) A Rose Garden
EXTD=
EXTT0=
EXTT1=
EXTT2=
EXTT3=
EXTT4=
EXTT5=
EXTT6=
EXTT7=
EXTT8=
EXTT9=
EXTT10=
EXTT11=
EXTT12=
EXTT13=
EXTT14=
EXTT15=
PLAYORDER=
